<svg width="18" height="14" viewBox="0 0 18 14" fill="none" xmlns="http://www.w3.org/2000/svg">
<path d="M15.6667 0.333374H2.33334C1.41667 0.333374 0.675005 1.08337 0.675005 2.00004L0.666672 12C0.666672 12.9167 1.41667 13.6667 2.33334 13.6667H15.6667C16.5833 13.6667 17.3333 12.9167 17.3333 12V2.00004C17.3333 1.08337 16.5833 0.333374 15.6667 0.333374ZM14.8333 12H3.16667C2.70834 12 2.33334 11.625 2.33334 11.1667V3.66671L8.11667 7.28337C8.65834 7.62504 9.34167 7.62504 9.88334 7.28337L15.6667 3.66671V11.1667C15.6667 11.625 15.2917 12 14.8333 12ZM9 6.16671L2.33334 2.00004H15.6667L9 6.16671Z" fill="black"/>
</svg>
